<svg width="15" height="16" viewBox="0 0 15 16" fill="none" xmlns="http://www.w3.org/2000/svg">
<g clip-path="url(#clip0_209_112)">
<path d="M5 8H3.75C3.06063 8 2.5 8.56063 2.5 9.25V10.5C2.5 11.1894 3.06063 11.75 3.75 11.75H5C5.68937 11.75 6.25 11.1894 6.25 10.5V9.25C6.25 8.56063 5.68937 8 5 8ZM3.75 10.5V9.25H5V10.5H3.75ZM11.875 1.75H11.25V1.125C11.25 0.78 10.9706 0.5 10.625 0.5C10.2794 0.5 10 0.78 10 1.125V1.75H5V1.125C5 0.78 4.72062 0.5 4.375 0.5C4.02938 0.5 3.75 0.78 3.75 1.125V1.75H3.125C1.40188 1.75 0 3.15188 0 4.875V12.375C0 14.0981 1.40188 15.5 3.125 15.5H11.875C13.5981 15.5 15 14.0981 15 12.375V4.875C15 3.15188 13.5981 1.75 11.875 1.75ZM3.125 3H11.875C12.9087 3 13.75 3.84125 13.75 4.875V5.5H1.25V4.875C1.25 3.84125 2.09125 3 3.125 3ZM11.875 14.25H3.125C2.09125 14.25 1.25 13.4087 1.25 12.375V6.75H13.75V12.375C13.75 13.4087 12.9087 14.25 11.875 14.25Z" fill="#20525C"/>
</g>
<defs>
<clipPath id="clip0_209_112">
<rect width="15" height="15" fill="white" transform="translate(0 0.5)"/>
</clipPath>
</defs>
</svg>
