<svg width="18" height="18" viewBox="0 0 18 18" fill="none" xmlns="http://www.w3.org/2000/svg">
<g clip-path="url(#clip0_45_2477)">
<path d="M14.25 1.5H13.5V0.75C13.5 0.336 13.164 0 12.75 0C12.336 0 12 0.336 12 0.75V1.5H6V0.75C6 0.336 5.664 0 5.25 0C4.836 0 4.5 0.336 4.5 0.75V1.5H3.75C1.68225 1.5 0 3.18225 0 5.25V14.25C0 16.3177 1.68225 18 3.75 18H14.25C16.3177 18 18 16.3177 18 14.25V5.25C18 3.18225 16.3177 1.5 14.25 1.5ZM3.75 3H14.25C15.4905 3 16.5 4.0095 16.5 5.25V6H1.5V5.25C1.5 4.0095 2.5095 3 3.75 3ZM14.25 16.5H3.75C2.5095 16.5 1.5 15.4905 1.5 14.25V7.5H16.5V14.25C16.5 15.4905 15.4905 16.5 14.25 16.5ZM12 12C12 12.414 11.664 12.75 11.25 12.75H6.75C6.336 12.75 6 12.414 6 12C6 11.586 6.336 11.25 6.75 11.25H11.25C11.664 11.25 12 11.586 12 12Z" fill="#7A7A7A"/>
</g>
<defs>
<clipPath id="clip0_45_2477">
<rect width="18" height="18" fill="white"/>
</clipPath>
</defs>
</svg>
