<svg width="15" height="16" viewBox="0 0 15 16" fill="none" xmlns="http://www.w3.org/2000/svg">
<g clip-path="url(#clip0_209_122)">
<path d="M7.5 15.5C3.36437 15.5 0 12.1356 0 8C0 3.86437 3.36437 0.5 7.5 0.5C11.6356 0.5 15 3.86437 15 8C15 12.1356 11.6356 15.5 7.5 15.5ZM7.5 1.75C4.05375 1.75 1.25 4.55375 1.25 8C1.25 11.4462 4.05375 14.25 7.5 14.25C10.9462 14.25 13.75 11.4462 13.75 8C13.75 4.55375 10.9462 1.75 7.5 1.75ZM9.0625 10.7063C9.36187 10.5337 9.46438 10.1512 9.29125 9.8525L8.125 7.8325V4.25C8.125 3.905 7.84562 3.625 7.5 3.625C7.15438 3.625 6.875 3.905 6.875 4.25V8C6.875 8.11 6.90375 8.2175 6.95875 8.3125L8.20875 10.4775C8.325 10.6781 8.53438 10.79 8.75063 10.79C8.85688 10.79 8.96437 10.7631 9.0625 10.7063Z" fill="#20525C"/>
</g>
<defs>
<clipPath id="clip0_209_122">
<rect width="15" height="15" fill="white" transform="translate(0 0.5)"/>
</clipPath>
</defs>
</svg>
