<svg width="13" height="14" viewBox="0 0 13 14" fill="none" xmlns="http://www.w3.org/2000/svg">
<path d="M6.5 9.16667C6.42871 9.16708 6.35804 9.15341 6.29205 9.12646C6.22605 9.0995 6.16603 9.05978 6.11542 9.00958L2.86542 5.75958C2.76342 5.65758 2.70612 5.51925 2.70612 5.375C2.70612 5.23075 2.76342 5.09241 2.86542 4.99042C2.96741 4.88842 3.10575 4.83112 3.25 4.83112C3.39425 4.83112 3.53258 4.88842 3.63458 4.99042L6.5 7.86125L9.36542 4.99583C9.46904 4.90709 9.60233 4.86072 9.73865 4.86599C9.87498 4.87125 10.0043 4.92777 10.1008 5.02424C10.1972 5.1207 10.2537 5.25002 10.259 5.38634C10.2643 5.52267 10.2179 5.65596 10.1292 5.75958L6.87917 9.00958C6.77827 9.10965 6.6421 9.16607 6.5 9.16667Z" fill="#20525C"/>
</svg>
