<svg width="20" height="18" viewBox="0 0 20 18" fill="none" xmlns="http://www.w3.org/2000/svg">
<path d="M18.0769 2.45816C17.083 1.38018 15.7192 0.786484 14.2365 0.786484C13.1282 0.786484 12.1132 1.13687 11.2196 1.82784C10.7687 2.17662 10.3602 2.60333 9.99999 3.10138C9.63994 2.60348 9.23124 2.17662 8.78022 1.82784C7.88681 1.13687 6.87182 0.786484 5.76352 0.786484C4.2808 0.786484 2.91689 1.38018 1.92299 2.45816C0.940961 3.52354 0.399994 4.97901 0.399994 6.55665C0.399994 8.18043 1.00512 9.66681 2.30429 11.2345C3.4665 12.6368 5.13686 14.0603 7.07119 15.7087C7.73168 16.2716 8.48037 16.9097 9.25776 17.5894C9.46313 17.7693 9.72665 17.8683 9.99999 17.8683C10.2732 17.8683 10.5369 17.7693 10.7419 17.5897C11.5193 16.9099 12.2685 16.2715 12.9292 15.7083C14.8633 14.0602 16.5336 12.6368 17.6958 11.2343C18.995 9.66681 19.6 8.18043 19.6 6.5565C19.6 4.97901 19.059 3.52354 18.0769 2.45816Z" fill="white"/>
</svg>
