<svg width="10" height="10" viewBox="0 0 10 10" fill="none" xmlns="http://www.w3.org/2000/svg">
<g clip-path="url(#clip0_209_223)">
<path d="M10 5C10 5.17188 9.85938 5.3125 9.6875 5.3125H5.3125V9.6875C5.3125 9.85938 5.17188 10 5 10C4.82812 10 4.6875 9.85938 4.6875 9.6875V5.3125H0.3125C0.140625 5.3125 0 5.17188 0 5C0 4.82812 0.140625 4.6875 0.3125 4.6875H4.6875V0.3125C4.6875 0.140625 4.82812 0 5 0C5.17188 0 5.3125 0.140625 5.3125 0.3125V4.6875H9.6875C9.85938 4.6875 10 4.82812 10 5Z" fill="#141416"/>
</g>
<defs>
<clipPath id="clip0_209_223">
<rect width="10" height="10" fill="white"/>
</clipPath>
</defs>
</svg>
