<svg width="78" height="40" viewBox="0 0 78 40" fill="none" xmlns="http://www.w3.org/2000/svg">
<path d="M14.82 0.726624V18.6866H11.9261L3.46349 6.45312H3.3144V18.6866H0.0609131V0.726624H2.97239L11.4262 12.9689H11.5841V0.726624H14.82Z" fill="#56A950"/>
<path d="M22.1009 18.9584C21.2473 18.9584 20.4785 18.8064 19.7945 18.5024C19.1163 18.1926 18.5785 17.7366 18.1809 17.1344C17.7892 16.5322 17.5934 15.7897 17.5934 14.9069C17.5934 14.1469 17.7337 13.5184 18.0143 13.0215C18.2949 12.5245 18.6779 12.127 19.1631 11.8288C19.6484 11.5307 20.195 11.3056 20.803 11.1536C21.4169 10.9957 22.0512 10.8817 22.706 10.8116C23.4953 10.7297 24.1354 10.6566 24.6265 10.5923C25.1176 10.5222 25.4742 10.4169 25.6964 10.2766C25.9244 10.1305 26.0384 9.90538 26.0384 9.60137V9.54876C26.0384 8.88812 25.8426 8.37657 25.4509 8.01409C25.0592 7.65162 24.495 7.47038 23.7583 7.47038C22.9808 7.47038 22.364 7.63993 21.908 7.97901C21.4578 8.3181 21.1538 8.71858 20.9959 9.18044L18.0318 8.7595C18.2657 7.94101 18.6516 7.25699 19.1894 6.70743C19.7273 6.15203 20.385 5.73694 21.1626 5.46216C21.9401 5.18154 22.7995 5.04123 23.7408 5.04123C24.3897 5.04123 25.0358 5.11723 25.6789 5.26923C26.322 5.42124 26.9095 5.67263 27.4415 6.02341C27.9736 6.36835 28.4003 6.83898 28.7219 7.4353C29.0493 8.03163 29.213 8.77704 29.213 9.67153V18.6866H26.1612V16.8362H26.056C25.863 17.2104 25.5912 17.5612 25.2404 17.8886C24.8955 18.2101 24.4599 18.4703 23.9337 18.6691C23.4134 18.862 22.8025 18.9584 22.1009 18.9584ZM22.9252 16.6258C23.5625 16.6258 24.115 16.5001 24.5827 16.2487C25.0504 15.9914 25.4099 15.6523 25.6613 15.2314C25.9186 14.8105 26.0472 14.3515 26.0472 13.8546V12.2673C25.9478 12.3492 25.7783 12.4252 25.5386 12.4953C25.3047 12.5655 25.0416 12.6269 24.7493 12.6795C24.457 12.7321 24.1676 12.7789 23.8811 12.8198C23.5946 12.8607 23.3462 12.8958 23.1357 12.925C22.6621 12.9893 22.2383 13.0946 21.8641 13.2407C21.49 13.3869 21.1947 13.5915 20.9784 13.8546C20.7621 14.1118 20.6539 14.4451 20.6539 14.8543C20.6539 15.4389 20.8673 15.8803 21.2941 16.1785C21.7209 16.4767 22.2646 16.6258 22.9252 16.6258Z" fill="#56A950"/>
<path d="M39.1313 5.21662V7.67208H31.3878V5.21662H39.1313ZM33.2996 1.98943H36.4741V14.6351C36.4741 15.0619 36.5385 15.3893 36.6671 15.6173C36.8015 15.8394 36.9769 15.9914 37.1932 16.0733C37.4096 16.1551 37.6493 16.1961 37.9123 16.1961C38.1111 16.1961 38.2924 16.1814 38.4561 16.1522C38.6256 16.123 38.7542 16.0967 38.8419 16.0733L39.3769 18.5551C39.2073 18.6135 38.9647 18.6778 38.649 18.748C38.3391 18.8181 37.9591 18.8591 37.5089 18.8708C36.7138 18.8941 35.9977 18.7743 35.3604 18.5112C34.7232 18.2423 34.2174 17.8272 33.8433 17.2659C33.475 16.7047 33.2937 16.0031 33.2996 15.1612V1.98943Z" fill="#56A950"/>
<path d="M50.3716 13.0215V5.21662H53.5462V18.6866H50.4681V16.2925H50.3278C50.0238 17.0467 49.5239 17.6635 48.8282 18.1429C48.1383 18.6223 47.2877 18.862 46.2763 18.862C45.3935 18.862 44.613 18.6661 43.9348 18.2744C43.2625 17.8769 42.7363 17.301 42.3563 16.5468C41.9763 15.7868 41.7863 14.8689 41.7863 13.7932V5.21662H44.9608V13.3021C44.9608 14.1557 45.1947 14.8339 45.6624 15.3366C46.1301 15.8394 46.744 16.0908 47.504 16.0908C47.9717 16.0908 48.4248 15.9768 48.8633 15.7488C49.3018 15.5208 49.6613 15.1817 49.9419 14.7315C50.2284 14.2755 50.3716 13.7055 50.3716 13.0215Z" fill="#56A950"/>
<path d="M56.8106 18.6866V5.21662H59.8888V7.46161H60.0291C60.2746 6.68405 60.6955 6.0848 61.2919 5.66386C61.894 5.23708 62.581 5.02369 63.3527 5.02369C63.5281 5.02369 63.724 5.03246 63.9403 5.04999C64.1624 5.06169 64.3466 5.08215 64.4927 5.11138V8.03163C64.3583 7.98486 64.1449 7.94394 63.8526 7.90886C63.5661 7.86793 63.2884 7.84747 63.0195 7.84747C62.4407 7.84747 61.9204 7.97317 61.4585 8.22456C61.0025 8.47011 60.6429 8.81212 60.3798 9.25059C60.1168 9.68907 59.9852 10.1948 59.9852 10.7677V18.6866H56.8106Z" fill="#56A950"/>
<path d="M72.0104 18.9497C70.6599 18.9497 69.4936 18.6691 68.5114 18.1078C67.535 17.5407 66.7838 16.7398 66.2576 15.705C65.7314 14.6643 65.4684 13.4395 65.4684 12.0305C65.4684 10.6449 65.7314 9.42891 66.2576 8.38241C66.7896 7.33007 67.5321 6.51158 68.4851 5.92695C69.438 5.33647 70.5576 5.04123 71.8438 5.04123C72.674 5.04123 73.4574 5.17569 74.194 5.44462C74.9365 5.70771 75.5913 6.11695 76.1584 6.67236C76.7313 7.22776 77.1815 7.93517 77.5089 8.79458C77.8363 9.64815 78 10.6654 78 11.8464V12.8198H66.9592V10.68H74.957C74.9511 10.072 74.8196 9.53122 74.5623 9.05766C74.3051 8.57826 73.9456 8.20118 73.4837 7.9264C73.0277 7.65162 72.4957 7.51423 71.8876 7.51423C71.2387 7.51423 70.6687 7.67208 70.1776 7.98778C69.6865 8.29764 69.3036 8.70688 69.0288 9.21552C68.7599 9.7183 68.6225 10.2708 68.6166 10.873V12.7409C68.6166 13.5243 68.7598 14.1966 69.0463 14.7579C69.3328 15.3133 69.7333 15.74 70.2477 16.0382C70.7622 16.3305 71.3644 16.4767 72.0543 16.4767C72.5161 16.4767 72.9341 16.4124 73.3083 16.2837C73.6825 16.1493 74.0069 15.9534 74.2817 15.6962C74.5565 15.439 74.764 15.1203 74.9044 14.7403L77.8685 15.0736C77.6814 15.857 77.3247 16.541 76.7986 17.1256C76.2782 17.7044 75.6118 18.1546 74.7991 18.4761C73.9865 18.7918 73.0569 18.9497 72.0104 18.9497Z" fill="#56A950"/>
<path d="M2.25329 31.2043V39.3073H0.183686V25.8374H2.18314V27.942H2.35853C2.67423 27.258 3.15363 26.7085 3.79673 26.2934C4.43983 25.8724 5.27001 25.662 6.28727 25.662C7.1993 25.662 7.99733 25.8491 8.68135 26.2232C9.36537 26.5915 9.89739 27.1528 10.2774 27.907C10.6574 28.6553 10.8474 29.6024 10.8474 30.7483V39.3073H8.77781V30.8886C8.77781 29.8304 8.50304 29.0061 7.95348 28.4156C7.40392 27.8193 6.64974 27.5211 5.69094 27.5211C5.03031 27.5211 4.43983 27.6643 3.9195 27.9508C3.40502 28.2373 2.9987 28.6553 2.70054 29.2049C2.40237 29.7544 2.25329 30.4209 2.25329 31.2043Z" fill="#56A950"/>
<path d="M20.1015 39.588C18.8854 39.588 17.8185 39.2986 16.9006 38.7198C15.9885 38.141 15.2753 37.3313 14.7608 36.2906C14.2522 35.25 13.9979 34.0339 13.9979 32.6425C13.9979 31.2394 14.2522 30.0146 14.7608 28.9681C15.2753 27.9216 15.9885 27.1089 16.9006 26.5302C17.8185 25.9514 18.8854 25.662 20.1015 25.662C21.3175 25.662 22.3815 25.9514 23.2936 26.5302C24.2114 27.1089 24.9247 27.9216 25.4333 28.9681C25.9478 30.0146 26.205 31.2394 26.205 32.6425C26.205 34.0339 25.9478 35.25 25.4333 36.2906C24.9247 37.3313 24.2114 38.141 23.2936 38.7198C22.3815 39.2986 21.3175 39.588 20.1015 39.588ZM20.1015 37.7288C21.0252 37.7288 21.7852 37.4921 22.3815 37.0185C22.9779 36.5449 23.4193 35.9223 23.7057 35.1506C23.9922 34.3789 24.1354 33.5428 24.1354 32.6425C24.1354 31.7422 23.9922 30.9032 23.7057 30.1257C23.4193 29.3481 22.9779 28.7196 22.3815 28.2402C21.7852 27.7608 21.0252 27.5211 20.1015 27.5211C19.1777 27.5211 18.4177 27.7608 17.8214 28.2402C17.225 28.7196 16.7836 29.3481 16.4972 30.1257C16.2107 30.9032 16.0675 31.7422 16.0675 32.6425C16.0675 33.5428 16.2107 34.3789 16.4972 35.1506C16.7836 35.9223 17.225 36.5449 17.8214 37.0185C18.4177 37.4921 19.1777 37.7288 20.1015 37.7288Z" fill="#56A950"/>
<path d="M35.2223 25.8374V27.5913H28.2418V25.8374H35.2223ZM30.2763 22.6102H32.3459V35.4488C32.3459 36.0334 32.4307 36.4719 32.6002 36.7642C32.7756 37.0507 32.9978 37.2436 33.2667 37.343C33.5415 37.4365 33.8309 37.4833 34.1349 37.4833C34.3629 37.4833 34.55 37.4716 34.6961 37.4482C34.8423 37.419 34.9592 37.3956 35.0469 37.378L35.4678 39.2372C35.3275 39.2898 35.1317 39.3424 34.8803 39.395C34.6289 39.4535 34.3103 39.4827 33.9244 39.4827C33.3398 39.4827 32.7668 39.357 32.2056 39.1056C31.6502 38.8543 31.1883 38.4713 30.82 37.9568C30.4575 37.4424 30.2763 36.7934 30.2763 36.01V22.6102Z" fill="#56A950"/>
<path d="M38.3355 39.3073V25.8374H40.4051V39.3073H38.3355ZM39.3878 23.5924C38.9844 23.5924 38.6366 23.455 38.3442 23.1802C38.0578 22.9054 37.9145 22.5751 37.9145 22.1892C37.9145 21.8034 38.0578 21.4731 38.3442 21.1983C38.6366 20.9235 38.9844 20.7861 39.3878 20.7861C39.7912 20.7861 40.1361 20.9235 40.4226 21.1983C40.7149 21.4731 40.8611 21.8034 40.8611 22.1892C40.8611 22.5751 40.7149 22.9054 40.4226 23.1802C40.1361 23.455 39.7912 23.5924 39.3878 23.5924Z" fill="#56A950"/>
<path d="M49.6679 39.588C48.4051 39.588 47.3176 39.2898 46.4056 38.6935C45.4936 38.0971 44.792 37.2757 44.3009 36.2292C43.8098 35.1827 43.5643 33.9872 43.5643 32.6425C43.5643 31.2745 43.8157 30.0672 44.3185 29.0207C44.8271 27.9684 45.5345 27.1469 46.4407 26.5565C47.3527 25.9601 48.4168 25.662 49.6328 25.662C50.5799 25.662 51.4335 25.8374 52.1935 26.1881C52.9535 26.5389 53.5762 27.03 54.0614 27.6614C54.5466 28.2928 54.8477 29.0295 54.9647 29.8713H52.8951C52.7372 29.2575 52.3864 28.7138 51.8427 28.2402C51.3049 27.7608 50.5799 27.5211 49.6679 27.5211C48.8611 27.5211 48.1537 27.7316 47.5457 28.1525C46.9435 28.5676 46.4728 29.1552 46.1338 29.9152C45.8005 30.6694 45.6339 31.5551 45.6339 32.5724C45.6339 33.613 45.7976 34.5192 46.125 35.2909C46.4582 36.0626 46.9259 36.6619 47.5281 37.0887C48.1361 37.5154 48.8494 37.7288 49.6679 37.7288C50.2057 37.7288 50.6939 37.6353 51.1324 37.4482C51.5709 37.2611 51.9421 36.9922 52.2461 36.6414C52.5501 36.2906 52.7664 35.8697 52.8951 35.3786H54.9647C54.8477 36.1737 54.5583 36.8899 54.0965 37.5271C53.6405 38.1585 53.0354 38.6613 52.2812 39.0355C51.5329 39.4038 50.6618 39.588 49.6679 39.588Z" fill="#56A950"/>
<path d="M63.6377 39.588C62.3398 39.588 61.2203 39.3015 60.279 38.7286C59.3436 38.1498 58.6216 37.343 58.1129 36.3082C57.6101 35.2675 57.3587 34.0573 57.3587 32.6776C57.3587 31.2979 57.6101 30.0818 58.1129 29.0295C58.6216 27.9713 59.329 27.1469 60.2351 26.5565C61.1472 25.9601 62.2112 25.662 63.4272 25.662C64.1288 25.662 64.8216 25.7789 65.5056 26.0128C66.1896 26.2466 66.8123 26.6266 67.3735 27.1528C67.9348 27.6731 68.382 28.363 68.7153 29.2224C69.0485 30.0818 69.2151 31.14 69.2151 32.397V33.2739H58.832V31.4849H67.1104C67.1104 30.7249 66.9584 30.0467 66.6544 29.4504C66.3563 28.8541 65.9295 28.3834 65.3741 28.0385C64.8245 27.6936 64.1756 27.5211 63.4272 27.5211C62.6029 27.5211 61.8897 27.7257 61.2875 28.135C60.6912 28.5384 60.2322 29.0645 59.9107 29.7135C59.5891 30.3624 59.4283 31.0582 59.4283 31.8006V32.9933C59.4283 34.0106 59.6037 34.8729 59.9545 35.5803C60.3111 36.2819 60.8052 36.8168 61.4366 37.1851C62.068 37.5476 62.8017 37.7288 63.6377 37.7288C64.1814 37.7288 64.6725 37.6528 65.111 37.5008C65.5553 37.343 65.9383 37.1091 66.2598 36.7993C66.5814 36.4836 66.8298 36.0919 67.0052 35.6241L69.0047 36.1854C68.7942 36.8636 68.4405 37.4599 67.9436 37.9744C67.4466 38.483 66.8327 38.8806 66.102 39.167C65.3712 39.4477 64.5497 39.588 63.6377 39.588Z" fill="#56A950"/>
</svg>
