<svg width="16" height="16" viewBox="0 0 16 16" fill="none" xmlns="http://www.w3.org/2000/svg">
<g clip-path="url(#clip0_209_169)">
<path d="M12.223 9.66688C11.7505 9.66726 11.2851 9.78263 10.8671 10.003C10.4491 10.2234 10.0909 10.5422 9.82363 10.9319L5.75551 9.095C6.04445 8.39727 6.04557 7.61356 5.75863 6.915L9.82113 5.06875C10.2173 5.64172 10.8057 6.05373 11.4796 6.23003C12.1535 6.40633 12.8683 6.33525 13.4943 6.02969C14.1203 5.72412 14.6161 5.20431 14.8917 4.56454C15.1672 3.92477 15.2044 3.20742 14.9964 2.54261C14.7883 1.8778 14.3489 1.30956 13.7578 0.940974C13.1667 0.572386 12.4631 0.42786 11.7746 0.533612C11.0861 0.639364 10.4583 0.98839 10.005 1.51738C9.5518 2.04637 9.30317 2.72028 9.30426 3.41688C9.3069 3.58175 9.32363 3.7461 9.35426 3.90813L5.03551 5.87063C4.62072 5.48201 4.10145 5.22302 3.54149 5.12548C2.98153 5.02793 2.40527 5.09608 1.88351 5.32154C1.36175 5.547 0.917209 5.91996 0.604504 6.3946C0.291798 6.86924 0.124547 7.42489 0.123298 7.99328C0.122049 8.56167 0.286857 9.11805 0.597474 9.59406C0.908091 10.0701 1.35099 10.445 1.87175 10.6727C2.39252 10.9005 2.96847 10.9712 3.52885 10.8761C4.08924 10.781 4.60964 10.5243 5.02613 10.1375L9.35613 12.0925C9.32606 12.2544 9.30954 12.4185 9.30676 12.5831C9.30663 13.1601 9.47761 13.7241 9.79808 14.2039C10.1185 14.6837 10.5741 15.0576 11.1071 15.2785C11.6401 15.4993 12.2267 15.5571 12.7925 15.4446C13.3584 15.3321 13.8782 15.0543 14.2862 14.6463C14.6941 14.2383 14.972 13.7185 15.0845 13.1527C15.197 12.5868 15.1392 12.0002 14.9184 11.4672C14.6975 10.9342 14.3235 10.4787 13.8438 10.1582C13.364 9.83774 12.8 9.66675 12.223 9.66688ZM12.223 1.75C12.5527 1.74988 12.875 1.84753 13.1492 2.03062C13.4234 2.2137 13.6372 2.47399 13.7634 2.77856C13.8897 3.08313 13.9228 3.4183 13.8586 3.74168C13.7943 4.06507 13.6356 4.36214 13.4025 4.59531C13.1694 4.82849 12.8724 4.98731 12.5491 5.05168C12.2257 5.11604 11.8905 5.08307 11.5859 4.95693C11.2813 4.83078 11.0209 4.61714 10.8377 4.34301C10.6545 4.06888 10.5568 3.74658 10.5568 3.41688C10.5571 2.975 10.7327 2.55131 11.0451 2.2388C11.3575 1.92629 11.7811 1.7505 12.223 1.75ZM3.05676 9.66688C2.72705 9.667 2.40472 9.56935 2.13052 9.38626C1.85632 9.20318 1.64258 8.94289 1.51632 8.63832C1.39006 8.33375 1.35696 7.99858 1.42121 7.67519C1.48545 7.35181 1.64416 7.05474 1.87725 6.82156C2.11034 6.58839 2.40735 6.42957 2.73071 6.3652C3.05407 6.30083 3.38925 6.33381 3.69387 6.45995C3.99849 6.58609 4.25886 6.79974 4.44204 7.07387C4.62523 7.348 4.72301 7.6703 4.72301 8C4.72251 8.44182 4.54682 8.86542 4.23446 9.17789C3.92211 9.49037 3.49858 9.66621 3.05676 9.66688ZM12.223 14.25C11.8933 14.25 11.5711 14.1522 11.2969 13.9691C11.0228 13.7859 10.8092 13.5256 10.683 13.221C10.5569 12.9164 10.5238 12.5813 10.5882 12.2579C10.6525 11.9346 10.8112 11.6376 11.0443 11.4045C11.2775 11.1714 11.5745 11.0126 11.8978 10.9483C12.2212 10.884 12.5563 10.917 12.8609 11.0431C13.1655 11.1693 13.4258 11.3829 13.609 11.6571C13.7921 11.9312 13.8899 12.2535 13.8899 12.5831C13.8896 13.0251 13.7138 13.4489 13.4013 13.7614C13.0888 14.0739 12.665 14.2497 12.223 14.25Z" fill="#20525C"/>
</g>
<defs>
<clipPath id="clip0_209_169">
<rect width="15" height="15" fill="white" transform="translate(0.139893 0.5)"/>
</clipPath>
</defs>
</svg>
