<svg width="17" height="16" viewBox="0 0 17 16" fill="none" xmlns="http://www.w3.org/2000/svg">
<path d="M15.6624 1.96794C14.7896 1.02134 13.5921 0.5 12.2901 0.5C11.3168 0.5 10.4255 0.807687 9.64089 1.41444C9.24496 1.72071 8.8862 2.09542 8.5699 2.53277C8.25372 2.09555 7.89484 1.72071 7.49878 1.41444C6.71426 0.807687 5.82297 0.5 4.84974 0.5C3.54773 0.5 2.35004 1.02134 1.47728 1.96794C0.614929 2.90348 0.139893 4.18157 0.139893 5.56693C0.139893 6.99281 0.67127 8.29804 1.8121 9.67466C2.83267 10.906 4.29946 12.1561 5.99804 13.6036C6.57804 14.0979 7.23547 14.6582 7.91812 15.2551C8.09846 15.413 8.32987 15.5 8.5699 15.5C8.8098 15.5 9.04134 15.413 9.22142 15.2553C9.90407 14.6584 10.5619 14.0978 11.1421 13.6032C12.8405 12.156 14.3073 10.906 15.3278 9.67453C16.4687 8.29804 16.9999 6.99281 16.9999 5.5668C16.9999 4.18157 16.5249 2.90348 15.6624 1.96794Z" fill="#20525C"/>
</svg>
